<mxfile host="Electron" modified="2024-07-11T02:49:33.244Z" agent="Mozilla/5.0 (Windows NT 10.0; Win64; x64) AppleWebKit/537.36 (KHTML, like Gecko) draw.io/24.5.3 Chrome/124.0.6367.207 Electron/30.0.6 Safari/537.36" etag="s-umHYxbQkxWPYAAdaFl" version="24.5.3" type="device">
  <diagram id="C5RBs43oDa-KdzZeNtuy" name="Page-1">
    <mxGraphModel dx="1036" dy="606" grid="1" gridSize="10" guides="1" tooltips="1" connect="1" arrows="1" fold="1" page="1" pageScale="1" pageWidth="827" pageHeight="1169" math="0" shadow="0">
      <root>
        <mxCell id="WIyWlLk6GJQsqaUBKTNV-0" />
        <mxCell id="WIyWlLk6GJQsqaUBKTNV-1" parent="WIyWlLk6GJQsqaUBKTNV-0" />
        <mxCell id="R4COSyPz-1PTqbi66szX-0" value="Splitwise" style="text;html=1;align=center;verticalAlign=middle;resizable=0;points=[];autosize=1;strokeColor=none;fillColor=none;" vertex="1" parent="WIyWlLk6GJQsqaUBKTNV-1">
          <mxGeometry x="285" y="68" width="70" height="30" as="geometry" />
        </mxCell>
        <mxCell id="R4COSyPz-1PTqbi66szX-2" value="User" style="swimlane;fontStyle=0;childLayout=stackLayout;horizontal=1;startSize=30;horizontalStack=0;resizeParent=1;resizeParentMax=0;resizeLast=0;collapsible=1;marginBottom=0;whiteSpace=wrap;html=1;" vertex="1" parent="WIyWlLk6GJQsqaUBKTNV-1">
          <mxGeometry x="70" y="120" width="140" height="120" as="geometry" />
        </mxCell>
        <mxCell id="R4COSyPz-1PTqbi66szX-3" value="String userId;" style="text;strokeColor=none;fillColor=none;align=left;verticalAlign=middle;spacingLeft=4;spacingRight=4;overflow=hidden;points=[[0,0.5],[1,0.5]];portConstraint=eastwest;rotatable=0;whiteSpace=wrap;html=1;" vertex="1" parent="R4COSyPz-1PTqbi66szX-2">
          <mxGeometry y="30" width="140" height="30" as="geometry" />
        </mxCell>
        <mxCell id="R4COSyPz-1PTqbi66szX-4" value="String userName;" style="text;strokeColor=none;fillColor=none;align=left;verticalAlign=middle;spacingLeft=4;spacingRight=4;overflow=hidden;points=[[0,0.5],[1,0.5]];portConstraint=eastwest;rotatable=0;whiteSpace=wrap;html=1;" vertex="1" parent="R4COSyPz-1PTqbi66szX-2">
          <mxGeometry y="60" width="140" height="30" as="geometry" />
        </mxCell>
        <mxCell id="R4COSyPz-1PTqbi66szX-5" value="UserExpenseBalanceSh&lt;div&gt;-eet obj;&lt;/div&gt;" style="text;strokeColor=none;fillColor=none;align=left;verticalAlign=middle;spacingLeft=4;spacingRight=4;overflow=hidden;points=[[0,0.5],[1,0.5]];portConstraint=eastwest;rotatable=0;whiteSpace=wrap;html=1;" vertex="1" parent="R4COSyPz-1PTqbi66szX-2">
          <mxGeometry y="90" width="140" height="30" as="geometry" />
        </mxCell>
        <mxCell id="R4COSyPz-1PTqbi66szX-6" value="Expense" style="swimlane;fontStyle=0;childLayout=stackLayout;horizontal=1;startSize=30;horizontalStack=0;resizeParent=1;resizeParentMax=0;resizeLast=0;collapsible=1;marginBottom=0;whiteSpace=wrap;html=1;" vertex="1" parent="WIyWlLk6GJQsqaUBKTNV-1">
          <mxGeometry x="280" y="120" width="200" height="130" as="geometry" />
        </mxCell>
        <mxCell id="R4COSyPz-1PTqbi66szX-7" value="String id;&lt;div&gt;String description;&lt;/div&gt;" style="text;strokeColor=none;fillColor=none;align=left;verticalAlign=middle;spacingLeft=4;spacingRight=4;overflow=hidden;points=[[0,0.5],[1,0.5]];portConstraint=eastwest;rotatable=0;whiteSpace=wrap;html=1;" vertex="1" parent="R4COSyPz-1PTqbi66szX-6">
          <mxGeometry y="30" width="200" height="30" as="geometry" />
        </mxCell>
        <mxCell id="R4COSyPz-1PTqbi66szX-8" value="double expenseAmount;&lt;div&gt;User paidBy;&lt;/div&gt;" style="text;strokeColor=none;fillColor=none;align=left;verticalAlign=middle;spacingLeft=4;spacingRight=4;overflow=hidden;points=[[0,0.5],[1,0.5]];portConstraint=eastwest;rotatable=0;whiteSpace=wrap;html=1;" vertex="1" parent="R4COSyPz-1PTqbi66szX-6">
          <mxGeometry y="60" width="200" height="30" as="geometry" />
        </mxCell>
        <mxCell id="R4COSyPz-1PTqbi66szX-9" value="List&amp;lt;Split&amp;gt; splitDetails;&lt;div&gt;ExpenseSplitType splitType&lt;/div&gt;" style="text;strokeColor=none;fillColor=none;align=left;verticalAlign=middle;spacingLeft=4;spacingRight=4;overflow=hidden;points=[[0,0.5],[1,0.5]];portConstraint=eastwest;rotatable=0;whiteSpace=wrap;html=1;" vertex="1" parent="R4COSyPz-1PTqbi66szX-6">
          <mxGeometry y="90" width="200" height="40" as="geometry" />
        </mxCell>
        <mxCell id="R4COSyPz-1PTqbi66szX-10" value="enum expenseSplitType" style="swimlane;fontStyle=0;childLayout=stackLayout;horizontal=1;startSize=30;horizontalStack=0;resizeParent=1;resizeParentMax=0;resizeLast=0;collapsible=1;marginBottom=0;whiteSpace=wrap;html=1;" vertex="1" parent="WIyWlLk6GJQsqaUBKTNV-1">
          <mxGeometry x="550" y="120" width="140" height="120" as="geometry" />
        </mxCell>
        <mxCell id="R4COSyPz-1PTqbi66szX-11" value="Equal," style="text;strokeColor=none;fillColor=none;align=left;verticalAlign=middle;spacingLeft=4;spacingRight=4;overflow=hidden;points=[[0,0.5],[1,0.5]];portConstraint=eastwest;rotatable=0;whiteSpace=wrap;html=1;" vertex="1" parent="R4COSyPz-1PTqbi66szX-10">
          <mxGeometry y="30" width="140" height="30" as="geometry" />
        </mxCell>
        <mxCell id="R4COSyPz-1PTqbi66szX-12" value="Unequal," style="text;strokeColor=none;fillColor=none;align=left;verticalAlign=middle;spacingLeft=4;spacingRight=4;overflow=hidden;points=[[0,0.5],[1,0.5]];portConstraint=eastwest;rotatable=0;whiteSpace=wrap;html=1;" vertex="1" parent="R4COSyPz-1PTqbi66szX-10">
          <mxGeometry y="60" width="140" height="30" as="geometry" />
        </mxCell>
        <mxCell id="R4COSyPz-1PTqbi66szX-13" value="Percentage;" style="text;strokeColor=none;fillColor=none;align=left;verticalAlign=middle;spacingLeft=4;spacingRight=4;overflow=hidden;points=[[0,0.5],[1,0.5]];portConstraint=eastwest;rotatable=0;whiteSpace=wrap;html=1;" vertex="1" parent="R4COSyPz-1PTqbi66szX-10">
          <mxGeometry y="90" width="140" height="30" as="geometry" />
        </mxCell>
        <mxCell id="R4COSyPz-1PTqbi66szX-14" value="Split" style="swimlane;fontStyle=0;childLayout=stackLayout;horizontal=1;startSize=30;horizontalStack=0;resizeParent=1;resizeParentMax=0;resizeLast=0;collapsible=1;marginBottom=0;whiteSpace=wrap;html=1;" vertex="1" parent="WIyWlLk6GJQsqaUBKTNV-1">
          <mxGeometry x="550" y="280" width="140" height="120" as="geometry" />
        </mxCell>
        <mxCell id="R4COSyPz-1PTqbi66szX-15" value="User user;" style="text;strokeColor=none;fillColor=none;align=left;verticalAlign=middle;spacingLeft=4;spacingRight=4;overflow=hidden;points=[[0,0.5],[1,0.5]];portConstraint=eastwest;rotatable=0;whiteSpace=wrap;html=1;" vertex="1" parent="R4COSyPz-1PTqbi66szX-14">
          <mxGeometry y="30" width="140" height="30" as="geometry" />
        </mxCell>
        <mxCell id="R4COSyPz-1PTqbi66szX-16" value="double amount;" style="text;strokeColor=none;fillColor=none;align=left;verticalAlign=middle;spacingLeft=4;spacingRight=4;overflow=hidden;points=[[0,0.5],[1,0.5]];portConstraint=eastwest;rotatable=0;whiteSpace=wrap;html=1;" vertex="1" parent="R4COSyPz-1PTqbi66szX-14">
          <mxGeometry y="60" width="140" height="30" as="geometry" />
        </mxCell>
        <mxCell id="R4COSyPz-1PTqbi66szX-17" value="int percentage;" style="text;strokeColor=none;fillColor=none;align=left;verticalAlign=middle;spacingLeft=4;spacingRight=4;overflow=hidden;points=[[0,0.5],[1,0.5]];portConstraint=eastwest;rotatable=0;whiteSpace=wrap;html=1;" vertex="1" parent="R4COSyPz-1PTqbi66szX-14">
          <mxGeometry y="90" width="140" height="30" as="geometry" />
        </mxCell>
        <mxCell id="R4COSyPz-1PTqbi66szX-18" value="UserController&lt;hr&gt;List&amp;lt;User&amp;gt; users;&lt;div&gt;// CRUD operations&lt;/div&gt;" style="whiteSpace=wrap;html=1;aspect=fixed;" vertex="1" parent="WIyWlLk6GJQsqaUBKTNV-1">
          <mxGeometry x="60" y="280" width="110" height="110" as="geometry" />
        </mxCell>
        <mxCell id="R4COSyPz-1PTqbi66szX-19" style="edgeStyle=orthogonalEdgeStyle;rounded=0;orthogonalLoop=1;jettySize=auto;html=1;exitX=0;exitY=0.5;exitDx=0;exitDy=0;entryX=1;entryY=0.5;entryDx=0;entryDy=0;" edge="1" parent="WIyWlLk6GJQsqaUBKTNV-1" source="R4COSyPz-1PTqbi66szX-8" target="R4COSyPz-1PTqbi66szX-4">
          <mxGeometry relative="1" as="geometry" />
        </mxCell>
        <mxCell id="R4COSyPz-1PTqbi66szX-20" style="edgeStyle=orthogonalEdgeStyle;rounded=0;orthogonalLoop=1;jettySize=auto;html=1;exitX=1;exitY=0.5;exitDx=0;exitDy=0;entryX=0;entryY=0.5;entryDx=0;entryDy=0;" edge="1" parent="WIyWlLk6GJQsqaUBKTNV-1" source="R4COSyPz-1PTqbi66szX-8" target="R4COSyPz-1PTqbi66szX-12">
          <mxGeometry relative="1" as="geometry" />
        </mxCell>
        <mxCell id="R4COSyPz-1PTqbi66szX-21" style="edgeStyle=orthogonalEdgeStyle;rounded=0;orthogonalLoop=1;jettySize=auto;html=1;exitX=1;exitY=0.5;exitDx=0;exitDy=0;entryX=0;entryY=0.25;entryDx=0;entryDy=0;" edge="1" parent="WIyWlLk6GJQsqaUBKTNV-1" source="R4COSyPz-1PTqbi66szX-9" target="R4COSyPz-1PTqbi66szX-14">
          <mxGeometry relative="1" as="geometry" />
        </mxCell>
        <mxCell id="R4COSyPz-1PTqbi66szX-22" style="edgeStyle=orthogonalEdgeStyle;rounded=0;orthogonalLoop=1;jettySize=auto;html=1;exitX=0.5;exitY=0;exitDx=0;exitDy=0;entryX=0.391;entryY=1.127;entryDx=0;entryDy=0;entryPerimeter=0;" edge="1" parent="WIyWlLk6GJQsqaUBKTNV-1" source="R4COSyPz-1PTqbi66szX-18" target="R4COSyPz-1PTqbi66szX-5">
          <mxGeometry relative="1" as="geometry" />
        </mxCell>
        <mxCell id="R4COSyPz-1PTqbi66szX-29" style="edgeStyle=orthogonalEdgeStyle;rounded=0;orthogonalLoop=1;jettySize=auto;html=1;exitX=0.5;exitY=0;exitDx=0;exitDy=0;" edge="1" parent="WIyWlLk6GJQsqaUBKTNV-1" source="R4COSyPz-1PTqbi66szX-24">
          <mxGeometry relative="1" as="geometry">
            <mxPoint x="370" y="260" as="targetPoint" />
          </mxGeometry>
        </mxCell>
        <mxCell id="R4COSyPz-1PTqbi66szX-37" style="edgeStyle=orthogonalEdgeStyle;rounded=0;orthogonalLoop=1;jettySize=auto;html=1;exitX=1;exitY=0.5;exitDx=0;exitDy=0;entryX=0;entryY=0.5;entryDx=0;entryDy=0;" edge="1" parent="WIyWlLk6GJQsqaUBKTNV-1" source="R4COSyPz-1PTqbi66szX-24" target="R4COSyPz-1PTqbi66szX-30">
          <mxGeometry relative="1" as="geometry" />
        </mxCell>
        <mxCell id="R4COSyPz-1PTqbi66szX-39" style="edgeStyle=orthogonalEdgeStyle;rounded=0;orthogonalLoop=1;jettySize=auto;html=1;exitX=0;exitY=0.5;exitDx=0;exitDy=0;entryX=0.5;entryY=0;entryDx=0;entryDy=0;" edge="1" parent="WIyWlLk6GJQsqaUBKTNV-1" source="R4COSyPz-1PTqbi66szX-24" target="R4COSyPz-1PTqbi66szX-38">
          <mxGeometry relative="1" as="geometry" />
        </mxCell>
        <mxCell id="R4COSyPz-1PTqbi66szX-41" style="edgeStyle=orthogonalEdgeStyle;rounded=0;orthogonalLoop=1;jettySize=auto;html=1;exitX=0.75;exitY=1;exitDx=0;exitDy=0;" edge="1" parent="WIyWlLk6GJQsqaUBKTNV-1" source="R4COSyPz-1PTqbi66szX-24" target="R4COSyPz-1PTqbi66szX-40">
          <mxGeometry relative="1" as="geometry" />
        </mxCell>
        <mxCell id="R4COSyPz-1PTqbi66szX-24" value="ExpenseController&lt;hr&gt;// create an expense&lt;div&gt;createExpense();&lt;/div&gt;" style="whiteSpace=wrap;html=1;aspect=fixed;" vertex="1" parent="WIyWlLk6GJQsqaUBKTNV-1">
          <mxGeometry x="320" y="300" width="100" height="100" as="geometry" />
        </mxCell>
        <mxCell id="R4COSyPz-1PTqbi66szX-30" value="ExpenseSplit&lt;hr&gt;validateRequest()" style="rounded=0;whiteSpace=wrap;html=1;" vertex="1" parent="WIyWlLk6GJQsqaUBKTNV-1">
          <mxGeometry x="560" y="440" width="120" height="60" as="geometry" />
        </mxCell>
        <mxCell id="R4COSyPz-1PTqbi66szX-31" value="Equal" style="rounded=0;whiteSpace=wrap;html=1;" vertex="1" parent="WIyWlLk6GJQsqaUBKTNV-1">
          <mxGeometry x="490" y="560" width="80" height="40" as="geometry" />
        </mxCell>
        <mxCell id="R4COSyPz-1PTqbi66szX-32" value="Unequal" style="rounded=0;whiteSpace=wrap;html=1;" vertex="1" parent="WIyWlLk6GJQsqaUBKTNV-1">
          <mxGeometry x="580" y="560" width="70" height="40" as="geometry" />
        </mxCell>
        <mxCell id="R4COSyPz-1PTqbi66szX-33" value="Percentage" style="rounded=0;whiteSpace=wrap;html=1;" vertex="1" parent="WIyWlLk6GJQsqaUBKTNV-1">
          <mxGeometry x="670" y="560" width="70" height="40" as="geometry" />
        </mxCell>
        <mxCell id="R4COSyPz-1PTqbi66szX-34" value="" style="endArrow=block;dashed=1;endFill=0;endSize=12;html=1;rounded=0;entryX=0.25;entryY=1;entryDx=0;entryDy=0;exitX=0.5;exitY=0;exitDx=0;exitDy=0;" edge="1" parent="WIyWlLk6GJQsqaUBKTNV-1" source="R4COSyPz-1PTqbi66szX-31" target="R4COSyPz-1PTqbi66szX-30">
          <mxGeometry width="160" relative="1" as="geometry">
            <mxPoint x="340" y="360" as="sourcePoint" />
            <mxPoint x="500" y="360" as="targetPoint" />
          </mxGeometry>
        </mxCell>
        <mxCell id="R4COSyPz-1PTqbi66szX-35" value="" style="endArrow=block;dashed=1;endFill=0;endSize=12;html=1;rounded=0;entryX=1;entryY=1;entryDx=0;entryDy=0;exitX=0.5;exitY=0;exitDx=0;exitDy=0;" edge="1" parent="WIyWlLk6GJQsqaUBKTNV-1" source="R4COSyPz-1PTqbi66szX-33" target="R4COSyPz-1PTqbi66szX-30">
          <mxGeometry width="160" relative="1" as="geometry">
            <mxPoint x="540" y="570" as="sourcePoint" />
            <mxPoint x="570" y="495" as="targetPoint" />
          </mxGeometry>
        </mxCell>
        <mxCell id="R4COSyPz-1PTqbi66szX-36" value="" style="endArrow=block;dashed=1;endFill=0;endSize=12;html=1;rounded=0;entryX=0.5;entryY=1;entryDx=0;entryDy=0;exitX=0.5;exitY=0;exitDx=0;exitDy=0;" edge="1" parent="WIyWlLk6GJQsqaUBKTNV-1" source="R4COSyPz-1PTqbi66szX-32" target="R4COSyPz-1PTqbi66szX-30">
          <mxGeometry width="160" relative="1" as="geometry">
            <mxPoint x="550" y="580" as="sourcePoint" />
            <mxPoint x="580" y="505" as="targetPoint" />
          </mxGeometry>
        </mxCell>
        <mxCell id="R4COSyPz-1PTqbi66szX-38" value="SplitFactory&lt;hr&gt;" style="rounded=0;whiteSpace=wrap;html=1;" vertex="1" parent="WIyWlLk6GJQsqaUBKTNV-1">
          <mxGeometry x="200" y="440" width="100" height="40" as="geometry" />
        </mxCell>
        <mxCell id="R4COSyPz-1PTqbi66szX-40" value="BalanceSheetController&lt;hr&gt;updateUserBalanceSheet();&lt;br&gt;&lt;div&gt;//Business Logic&lt;/div&gt;" style="rounded=0;whiteSpace=wrap;html=1;" vertex="1" parent="WIyWlLk6GJQsqaUBKTNV-1">
          <mxGeometry x="320" y="520" width="150" height="90" as="geometry" />
        </mxCell>
        <mxCell id="R4COSyPz-1PTqbi66szX-43" style="edgeStyle=orthogonalEdgeStyle;rounded=0;orthogonalLoop=1;jettySize=auto;html=1;exitX=0.5;exitY=0;exitDx=0;exitDy=0;" edge="1" parent="WIyWlLk6GJQsqaUBKTNV-1" source="R4COSyPz-1PTqbi66szX-42">
          <mxGeometry relative="1" as="geometry">
            <mxPoint x="105" y="400" as="targetPoint" />
          </mxGeometry>
        </mxCell>
        <mxCell id="R4COSyPz-1PTqbi66szX-46" style="edgeStyle=orthogonalEdgeStyle;rounded=0;orthogonalLoop=1;jettySize=auto;html=1;exitX=0.5;exitY=1;exitDx=0;exitDy=0;entryX=0.5;entryY=0;entryDx=0;entryDy=0;" edge="1" parent="WIyWlLk6GJQsqaUBKTNV-1" source="R4COSyPz-1PTqbi66szX-42" target="R4COSyPz-1PTqbi66szX-45">
          <mxGeometry relative="1" as="geometry" />
        </mxCell>
        <mxCell id="R4COSyPz-1PTqbi66szX-63" style="edgeStyle=orthogonalEdgeStyle;rounded=0;orthogonalLoop=1;jettySize=auto;html=1;exitX=1;exitY=0.75;exitDx=0;exitDy=0;entryX=0;entryY=0.75;entryDx=0;entryDy=0;" edge="1" parent="WIyWlLk6GJQsqaUBKTNV-1" source="R4COSyPz-1PTqbi66szX-42" target="R4COSyPz-1PTqbi66szX-40">
          <mxGeometry relative="1" as="geometry" />
        </mxCell>
        <mxCell id="R4COSyPz-1PTqbi66szX-42" value="Splitwise&lt;hr&gt;UserController obj;&lt;div&gt;GroupController obj;&lt;/div&gt;" style="whiteSpace=wrap;html=1;aspect=fixed;" vertex="1" parent="WIyWlLk6GJQsqaUBKTNV-1">
          <mxGeometry x="50" y="440" width="110" height="110" as="geometry" />
        </mxCell>
        <mxCell id="R4COSyPz-1PTqbi66szX-45" value="GroupController&lt;hr&gt;List&amp;lt;Group&amp;gt; groups;&lt;div&gt;//CRUD operations&lt;/div&gt;" style="whiteSpace=wrap;html=1;aspect=fixed;" vertex="1" parent="WIyWlLk6GJQsqaUBKTNV-1">
          <mxGeometry x="50" y="600" width="100" height="100" as="geometry" />
        </mxCell>
        <mxCell id="R4COSyPz-1PTqbi66szX-49" style="edgeStyle=orthogonalEdgeStyle;rounded=0;orthogonalLoop=1;jettySize=auto;html=1;exitX=0.5;exitY=0;exitDx=0;exitDy=0;entryX=0.25;entryY=1;entryDx=0;entryDy=0;" edge="1" parent="WIyWlLk6GJQsqaUBKTNV-1" source="R4COSyPz-1PTqbi66szX-47" target="R4COSyPz-1PTqbi66szX-24">
          <mxGeometry relative="1" as="geometry">
            <Array as="points">
              <mxPoint x="275" y="510" />
              <mxPoint x="345" y="510" />
            </Array>
          </mxGeometry>
        </mxCell>
        <mxCell id="R4COSyPz-1PTqbi66szX-50" style="edgeStyle=orthogonalEdgeStyle;rounded=0;orthogonalLoop=1;jettySize=auto;html=1;exitX=0.25;exitY=0;exitDx=0;exitDy=0;entryX=1;entryY=0.5;entryDx=0;entryDy=0;" edge="1" parent="WIyWlLk6GJQsqaUBKTNV-1" source="R4COSyPz-1PTqbi66szX-47" target="R4COSyPz-1PTqbi66szX-5">
          <mxGeometry relative="1" as="geometry">
            <Array as="points">
              <mxPoint x="180" y="640" />
              <mxPoint x="180" y="240" />
              <mxPoint x="210" y="240" />
            </Array>
          </mxGeometry>
        </mxCell>
        <mxCell id="R4COSyPz-1PTqbi66szX-51" style="edgeStyle=orthogonalEdgeStyle;rounded=0;orthogonalLoop=1;jettySize=auto;html=1;exitX=0.25;exitY=0;exitDx=0;exitDy=0;" edge="1" parent="WIyWlLk6GJQsqaUBKTNV-1" source="R4COSyPz-1PTqbi66szX-47" target="R4COSyPz-1PTqbi66szX-9">
          <mxGeometry relative="1" as="geometry">
            <Array as="points">
              <mxPoint x="243" y="620" />
              <mxPoint x="190" y="620" />
              <mxPoint x="190" y="250" />
            </Array>
          </mxGeometry>
        </mxCell>
        <mxCell id="R4COSyPz-1PTqbi66szX-47" value="Group&lt;hr&gt;String id;&lt;div&gt;String groupName;&lt;/div&gt;&lt;div&gt;List&amp;lt;User&amp;gt; users;&lt;/div&gt;&lt;div&gt;List&amp;lt;Expense&amp;gt; expenseList;&lt;/div&gt;&lt;div&gt;ExpenseController obj;&lt;/div&gt;" style="whiteSpace=wrap;html=1;aspect=fixed;" vertex="1" parent="WIyWlLk6GJQsqaUBKTNV-1">
          <mxGeometry x="210" y="640" width="130" height="130" as="geometry" />
        </mxCell>
        <mxCell id="R4COSyPz-1PTqbi66szX-48" style="edgeStyle=orthogonalEdgeStyle;rounded=0;orthogonalLoop=1;jettySize=auto;html=1;exitX=1;exitY=0.75;exitDx=0;exitDy=0;entryX=-0.015;entryY=0.312;entryDx=0;entryDy=0;entryPerimeter=0;" edge="1" parent="WIyWlLk6GJQsqaUBKTNV-1" source="R4COSyPz-1PTqbi66szX-45" target="R4COSyPz-1PTqbi66szX-47">
          <mxGeometry relative="1" as="geometry" />
        </mxCell>
        <mxCell id="R4COSyPz-1PTqbi66szX-53" value="UserExpenseBalanceSheet" style="swimlane;fontStyle=0;childLayout=stackLayout;horizontal=1;startSize=30;horizontalStack=0;resizeParent=1;resizeParentMax=0;resizeLast=0;collapsible=1;marginBottom=0;whiteSpace=wrap;html=1;" vertex="1" parent="WIyWlLk6GJQsqaUBKTNV-1">
          <mxGeometry x="400" y="640" width="150" height="120" as="geometry" />
        </mxCell>
        <mxCell id="R4COSyPz-1PTqbi66szX-54" value="Map&amp;lt;User,balance.Balance&amp;gt; friendBalance;" style="text;strokeColor=none;fillColor=none;align=left;verticalAlign=middle;spacingLeft=4;spacingRight=4;overflow=hidden;points=[[0,0.5],[1,0.5]];portConstraint=eastwest;rotatable=0;whiteSpace=wrap;html=1;" vertex="1" parent="R4COSyPz-1PTqbi66szX-53">
          <mxGeometry y="30" width="150" height="30" as="geometry" />
        </mxCell>
        <mxCell id="R4COSyPz-1PTqbi66szX-55" value="double totalExpense;&lt;div&gt;double totalPayment;&lt;/div&gt;" style="text;strokeColor=none;fillColor=none;align=left;verticalAlign=middle;spacingLeft=4;spacingRight=4;overflow=hidden;points=[[0,0.5],[1,0.5]];portConstraint=eastwest;rotatable=0;whiteSpace=wrap;html=1;" vertex="1" parent="R4COSyPz-1PTqbi66szX-53">
          <mxGeometry y="60" width="150" height="30" as="geometry" />
        </mxCell>
        <mxCell id="R4COSyPz-1PTqbi66szX-56" value="double totalOwe;&lt;div&gt;double totalGetBack;&lt;/div&gt;" style="text;strokeColor=none;fillColor=none;align=left;verticalAlign=middle;spacingLeft=4;spacingRight=4;overflow=hidden;points=[[0,0.5],[1,0.5]];portConstraint=eastwest;rotatable=0;whiteSpace=wrap;html=1;" vertex="1" parent="R4COSyPz-1PTqbi66szX-53">
          <mxGeometry y="90" width="150" height="30" as="geometry" />
        </mxCell>
        <mxCell id="R4COSyPz-1PTqbi66szX-57" style="edgeStyle=orthogonalEdgeStyle;rounded=0;orthogonalLoop=1;jettySize=auto;html=1;exitX=0.5;exitY=1;exitDx=0;exitDy=0;entryX=0.123;entryY=-0.015;entryDx=0;entryDy=0;entryPerimeter=0;" edge="1" parent="WIyWlLk6GJQsqaUBKTNV-1" source="R4COSyPz-1PTqbi66szX-40" target="R4COSyPz-1PTqbi66szX-53">
          <mxGeometry relative="1" as="geometry" />
        </mxCell>
        <mxCell id="R4COSyPz-1PTqbi66szX-58" value="balance.Balance" style="swimlane;fontStyle=0;childLayout=stackLayout;horizontal=1;startSize=30;horizontalStack=0;resizeParent=1;resizeParentMax=0;resizeLast=0;collapsible=1;marginBottom=0;whiteSpace=wrap;html=1;" vertex="1" parent="WIyWlLk6GJQsqaUBKTNV-1">
          <mxGeometry x="610" y="640" width="140" height="90" as="geometry" />
        </mxCell>
        <mxCell id="R4COSyPz-1PTqbi66szX-59" value="double amountOwe;" style="text;strokeColor=none;fillColor=none;align=left;verticalAlign=middle;spacingLeft=4;spacingRight=4;overflow=hidden;points=[[0,0.5],[1,0.5]];portConstraint=eastwest;rotatable=0;whiteSpace=wrap;html=1;" vertex="1" parent="R4COSyPz-1PTqbi66szX-58">
          <mxGeometry y="30" width="140" height="30" as="geometry" />
        </mxCell>
        <mxCell id="R4COSyPz-1PTqbi66szX-60" value="double amountGetBack;" style="text;strokeColor=none;fillColor=none;align=left;verticalAlign=middle;spacingLeft=4;spacingRight=4;overflow=hidden;points=[[0,0.5],[1,0.5]];portConstraint=eastwest;rotatable=0;whiteSpace=wrap;html=1;" vertex="1" parent="R4COSyPz-1PTqbi66szX-58">
          <mxGeometry y="60" width="140" height="30" as="geometry" />
        </mxCell>
        <mxCell id="R4COSyPz-1PTqbi66szX-62" style="edgeStyle=orthogonalEdgeStyle;rounded=0;orthogonalLoop=1;jettySize=auto;html=1;exitX=1;exitY=0.5;exitDx=0;exitDy=0;entryX=0;entryY=0.5;entryDx=0;entryDy=0;" edge="1" parent="WIyWlLk6GJQsqaUBKTNV-1" source="R4COSyPz-1PTqbi66szX-54" target="R4COSyPz-1PTqbi66szX-59">
          <mxGeometry relative="1" as="geometry" />
        </mxCell>
      </root>
    </mxGraphModel>
  </diagram>
</mxfile>
